<?xml version="1.0" standalone="no"?>
<!DOCTYPE svg PUBLIC "-//W3C//DTD SVG 20010904//EN"
 "http://www.w3.org/TR/2001/REC-SVG-20010904/DTD/svg10.dtd">
<svg version="1.0" xmlns="http://www.w3.org/2000/svg"
 width="1254.000000pt" height="1254.000000pt" viewBox="0 0 1254.000000 1254.000000"
 preserveAspectRatio="xMidYMid meet">

<g transform="translate(0.000000,1254.000000) scale(0.100000,-0.100000)"
fill="#000000" stroke="none">
<path d="M6090 11120 c-784 -376 -1547 -645 -2530 -894 l-325 -83 -3 -419 c-6
-738 27 -1293 99 -1713 144 -834 562 -1651 1225 -2391 149 -167 492 -502 634
-621 275 -229 518 -396 790 -542 115 -61 266 -127 293 -127 33 0 385 178 517
262 359 227 689 500 1012 839 616 646 1022 1292 1255 1999 88 268 137 496 182
860 44 349 52 530 58 1205 l5 650 -253 62 c-919 225 -1629 469 -2454 843 -88
40 -195 90 -237 111 -43 22 -83 39 -90 38 -7 0 -87 -36 -178 -79z m358 -496
c689 -335 1376 -583 2202 -794 l185 -47 0 -439 c-1 -260 -6 -508 -14 -609 -24
-323 -75 -715 -92 -715 -5 0 -9 8 -9 18 0 32 -48 121 -90 166 -78 84 -188 136
-291 136 l-47 0 -74 148 c-265 527 -629 911 -1098 1160 -96 51 -280 130 -357
153 l-43 12 0 61 c0 125 -50 245 -139 334 -218 217 -589 149 -722 -133 -30
-64 -49 -166 -42 -226 5 -34 3 -36 -39 -48 -23 -7 -92 -33 -153 -58 -575 -234
-1019 -667 -1325 -1291 l-54 -112 -51 0 c-160 0 -333 -132 -378 -288 l-14 -47
-12 66 c-67 384 -93 747 -95 1312 l-1 399 173 44 c836 210 1484 442 2193 784
112 54 206 98 207 99 2 1 83 -38 180 -85z m-100 -540 c192 -80 168 -367 -35
-412 -111 -25 -225 46 -253 155 -43 172 128 324 288 257z m-445 -469 c37 -59
97 -107 182 -147 124 -57 279 -50 407 19 45 24 140 116 163 157 9 16 16 15
100 -14 206 -72 448 -207 632 -352 101 -80 281 -260 366 -368 121 -152 235
-332 333 -529 l42 -84 -36 -27 c-162 -117 -223 -333 -146 -509 13 -29 24 -57
24 -61 0 -4 -33 -29 -72 -55 -93 -61 -322 -233 -370 -276 -28 -26 -48 -64 -89
-164 -28 -71 -60 -147 -71 -167 -10 -21 -16 -38 -13 -38 2 0 31 24 62 54 157
146 388 330 574 455 l102 69 47 -24 c143 -72 321 -51 447 52 24 19 43 31 43
26 0 -16 -47 -146 -100 -277 -247 -607 -596 -1115 -1155 -1684 -350 -355 -681
-636 -1017 -862 l-88 -59 -117 78 c-296 198 -600 457 -953 811 -627 629 -1011
1203 -1255 1878 -25 67 -45 126 -45 129 0 3 16 -9 36 -29 116 -113 316 -138
469 -60 l39 21 41 -27 c203 -132 468 -340 643 -505 l54 -51 -17 40 c-9 22 -29
72 -45 110 -89 217 -78 201 -202 297 -62 49 -168 127 -235 174 l-122 85 27 57
c24 51 27 69 27 167 0 103 -2 114 -32 177 -30 63 -101 147 -152 179 l-23 15
51 102 c264 526 631 906 1096 1133 115 56 294 129 315 128 3 0 18 -20 33 -44z
m-1607 -1510 c125 -62 152 -217 56 -318 -78 -82 -194 -84 -277 -3 -112 108
-73 280 74 332 54 20 92 17 147 -11z m4125 0 c73 -38 117 -137 99 -222 -32
-142 -188 -203 -311 -120 -99 67 -107 230 -16 315 54 51 157 63 228 27z"/>
<path d="M6082 9145 c-361 -64 -681 -311 -855 -660 -148 -298 -169 -650 -58
-976 114 -336 444 -1026 884 -1845 112 -209 130 -237 167 -262 77 -52 102 -29
242 229 423 780 804 1584 911 1924 66 212 75 469 22 675 -69 269 -225 514
-433 680 -113 91 -293 181 -427 216 -127 32 -328 41 -453 19z m322 -625 c110
-28 190 -73 273 -156 198 -195 229 -504 73 -737 -59 -88 -137 -155 -234 -202
-94 -44 -174 -59 -289 -52 -108 6 -191 32 -276 87 -161 104 -255 263 -268 450
-25 398 341 707 721 610z"/>
<path d="M6770 5389 c-102 -38 -256 -92 -343 -121 l-158 -53 -237 81 c-130 45
-282 97 -337 117 l-100 36 95 -90 c154 -148 562 -463 587 -454 19 7 239 171
353 263 164 133 352 300 328 291 -2 0 -86 -32 -188 -70z"/>
<path d="M3919 6003 c-20 -21 -56 -63 -81 -93 l-46 -55 57 -63 57 -62 73 86
73 86 -48 69 c-26 38 -48 69 -49 69 0 0 -17 -17 -36 -37z"/>
<path d="M8537 5978 c-26 -36 -47 -69 -47 -73 0 -3 28 -40 62 -81 l61 -75 59
58 c32 31 58 58 58 60 0 1 -24 30 -52 64 -29 34 -62 73 -74 87 l-21 25 -46
-65z"/>
<path d="M3145 5894 c-226 -50 -412 -231 -470 -459 -19 -75 -19 -212 0 -294
53 -223 251 -412 482 -457 145 -29 312 1 440 78 30 18 85 65 123 104 362 381
106 1014 -420 1040 -55 2 -110 -2 -155 -12z m298 -231 c85 -41 160 -115 201
-203 28 -60 31 -74 31 -170 0 -98 -2 -110 -32 -172 -41 -88 -113 -160 -201
-201 -62 -30 -75 -32 -172 -32 -93 0 -111 3 -163 27 -74 35 -166 123 -201 192
-78 154 -49 345 72 469 93 96 175 129 307 124 76 -2 100 -8 158 -34z"/>
<path d="M3193 5614 c-35 -37 -68 -92 -60 -101 3 -2 30 -7 61 -10 l56 -6 0 77
c0 50 -4 76 -11 76 -7 0 -27 -16 -46 -36z"/>
<path d="M3300 5574 l0 -77 52 7 c29 4 55 9 57 12 13 12 -55 106 -90 125 -18
9 -19 5 -19 -67z"/>
<path d="M3090 5599 c-41 -25 -80 -59 -80 -71 0 -4 15 -8 33 -8 28 0 35 6 58
50 15 28 26 50 25 50 0 0 -17 -10 -36 -21z"/>
<path d="M3421 5613 c34 -80 44 -92 77 -93 39 0 40 9 5 41 -34 30 -87 64 -82
52z"/>
<path d="M2942 5433 c-21 -51 -31 -106 -19 -110 4 -2 29 -3 56 -3 l48 0 14 74
c14 73 14 75 -6 80 -55 15 -72 8 -93 -41z"/>
<path d="M3502 5472 c-10 -7 -10 -23 -1 -80 l12 -72 48 0 c27 0 52 1 57 3 12
4 3 56 -19 108 -19 44 -25 49 -53 49 -17 0 -37 -4 -44 -8z"/>
<path d="M3091 5394 c-7 -37 -10 -69 -7 -71 2 -3 40 -5 83 -5 l78 0 3 65 3 64
-47 7 c-101 13 -101 14 -113 -60z"/>
<path d="M3325 5453 l-30 -4 2 -67 1 -67 79 0 c90 0 91 2 73 90 l-11 55 -42
-2 c-23 0 -55 -3 -72 -5z"/>
<path d="M2918 5265 c-18 -19 36 -165 62 -165 46 0 78 13 73 28 -4 8 -11 43
-17 76 l-11 61 -50 3 c-28 2 -53 0 -57 -3z"/>
<path d="M3081 5243 c0 -15 6 -50 12 -77 l12 -50 65 3 c36 1 69 6 73 10 4 5 7
37 5 72 l-3 64 -82 3 -83 3 1 -28z"/>
<path d="M3300 5205 c0 -36 0 -68 0 -72 0 -5 29 -10 66 -13 77 -6 81 -1 86 92
l3 53 -77 3 -78 3 0 -66z"/>
<path d="M3516 5258 c-3 -7 -7 -31 -10 -53 -3 -22 -8 -55 -12 -72 l-6 -33 45
0 c43 0 46 2 65 43 11 23 21 60 23 82 l4 40 -53 3 c-36 2 -53 -1 -56 -10z"/>
<path d="M3130 5062 c0 -30 87 -132 112 -132 5 0 8 32 8 70 l0 70 -60 0 c-33
0 -60 -4 -60 -8z"/>
<path d="M3298 5003 c-2 -38 -2 -70 -1 -72 8 -12 57 28 83 68 43 63 40 71 -24
71 l-54 0 -4 -67z"/>
<path d="M3027 5052 c-16 -7 -15 -10 10 -33 29 -26 78 -59 88 -59 4 0 -2 12
-13 28 -11 15 -23 37 -26 50 -7 22 -26 27 -59 14z"/>
<path d="M3446 5014 c-14 -25 -26 -48 -26 -50 0 -7 98 56 110 71 10 12 9 15
-8 15 -11 0 -27 3 -35 6 -10 3 -23 -10 -41 -42z"/>
<path d="M9085 5896 c-176 -41 -325 -146 -410 -291 -98 -168 -109 -405 -27
-579 181 -383 692 -473 992 -175 212 210 245 536 78 784 -80 121 -199 208
-338 249 -77 23 -221 29 -295 12z m273 -256 c107 -25 196 -92 235 -179 18 -38
22 -65 22 -156 0 -93 -4 -117 -23 -155 -64 -131 -174 -183 -387 -183 l-120 0
-72 -44 c-40 -25 -77 -42 -83 -38 -7 4 -10 33 -9 70 2 62 2 64 -44 115 -57 63
-81 130 -81 230 -1 97 25 177 76 235 48 55 89 80 159 99 63 17 263 20 327 6z"/>
<path d="M8960 5350 c-43 -43 -14 -110 48 -110 56 0 82 70 42 110 -11 11 -31
20 -45 20 -14 0 -34 -9 -45 -20z"/>
<path d="M9160 5350 c-41 -41 -13 -110 44 -110 40 0 66 26 66 67 0 57 -69 84
-110 43z"/>
<path d="M9360 5343 c-36 -46 -11 -103 45 -103 38 0 68 28 68 65 0 62 -74 87
-113 38z"/>
<path d="M3886 4835 c-10 -15 -33 -44 -53 -66 l-35 -39 50 -57 c292 -335 726
-638 1172 -816 125 -50 380 -131 447 -142 l42 -7 6 39 c4 21 11 54 16 73 9 34
0 49 -28 50 -6 0 -69 17 -140 39 -369 111 -712 286 -1017 520 -103 78 -318
284 -398 380 l-44 53 -18 -27z"/>
<path d="M8535 4749 c-179 -204 -483 -441 -755 -589 -212 -115 -468 -217 -695
-275 -109 -29 -130 -37 -128 -52 2 -10 6 -44 9 -75 4 -33 12 -58 18 -58 33 0
270 65 401 110 486 168 936 460 1257 816 l88 97 -53 56 c-28 31 -54 57 -57 58
-3 2 -41 -38 -85 -88z"/>
<path d="M6070 4224 c-104 -36 -176 -82 -253 -164 -178 -188 -216 -464 -96
-701 46 -92 162 -205 259 -253 353 -172 753 11 850 390 37 144 20 289 -51 433
-72 147 -217 265 -375 306 -95 25 -244 20 -334 -11z m394 -185 l26 -20 0 -373
c0 -320 -2 -375 -16 -394 -15 -21 -20 -22 -218 -22 -159 0 -206 3 -222 14 -18
14 -19 31 -22 383 -3 386 -1 400 42 421 12 6 99 11 202 11 169 1 183 0 208
-20z"/>
<path d="M6077 3838 c-3 -79 -5 -215 -4 -303 l2 -160 137 0 c75 0 155 1 177 3
l41 4 0 299 0 299 -173 0 -174 0 -6 -142z"/>
<path d="M6220 3321 c-7 -14 -5 -24 8 -41 20 -24 48 -19 57 11 14 42 -44 68
-65 30z"/>
<path d="M2826 2719 c-74 -11 -151 -47 -195 -90 -116 -116 -106 -307 21 -395
57 -39 95 -53 253 -95 99 -27 126 -38 153 -65 41 -41 44 -89 7 -133 -35 -41
-83 -54 -174 -49 -82 5 -161 34 -226 84 l-35 26 -39 -43 c-63 -70 -68 -85 -40
-109 176 -150 509 -160 647 -19 45 46 65 95 70 171 5 83 -10 130 -59 183 -47
51 -117 84 -267 125 -164 44 -212 74 -212 132 0 129 194 168 353 71 l58 -35
24 22 c13 13 36 40 51 61 25 37 26 40 10 58 -65 72 -260 121 -400 100z"/>
<path d="M5765 2720 c-345 -46 -531 -426 -363 -742 145 -273 563 -332 792
-112 l50 47 -50 43 c-66 58 -75 60 -115 23 -18 -17 -56 -43 -83 -57 -45 -24
-62 -27 -146 -27 -84 0 -102 3 -152 28 -65 32 -121 89 -152 156 -17 38 -21 65
-21 151 0 101 1 108 34 168 19 35 48 75 65 89 76 65 202 95 298 73 69 -17 101
-33 153 -81 l42 -39 57 46 c31 26 56 52 56 60 0 20 -67 81 -124 113 -93 53
-223 76 -341 61z"/>
<path d="M4316 2708 c-24 -7 -56 -28 -82 -53 -45 -45 -64 -102 -64 -190 l0
-44 -52 -3 -53 -3 0 -65 0 -65 53 -3 52 -3 0 -265 0 -265 83 3 82 3 3 263 2
262 80 0 80 0 0 70 0 69 -82 3 -82 3 3 50 c1 27 7 57 12 67 13 25 68 39 112
29 20 -5 39 -6 41 -2 5 8 36 113 36 122 0 11 -86 29 -137 28 -26 -1 -66 -6
-87 -11z"/>
<path d="M3600 2429 c-61 -10 -148 -49 -174 -78 -16 -17 -15 -21 23 -69 l40
-50 53 28 c95 50 184 51 238 0 24 -22 30 -36 30 -68 l0 -41 -90 6 c-164 11
-281 -34 -327 -127 -42 -81 -22 -186 46 -243 36 -30 117 -57 171 -57 57 0 137
28 175 61 l35 31 0 -36 0 -37 78 3 77 3 0 240 c-1 263 -5 292 -58 351 -40 46
-90 71 -168 84 -72 11 -73 11 -149 -1z m184 -386 l38 -6 -6 -46 c-11 -82 -70
-131 -159 -131 -83 0 -128 40 -118 105 9 64 119 99 245 78z"/>
<path d="M4830 2430 c-164 -28 -268 -148 -278 -321 -14 -238 160 -400 401
-375 69 7 169 51 206 90 l23 24 -42 46 c-24 25 -46 46 -51 46 -5 0 -29 -13
-54 -29 -114 -72 -256 -38 -306 74 l-18 40 47 7 c26 3 141 7 256 7 l209 1 -5
73 c-9 125 -56 217 -138 269 -69 44 -166 62 -250 48z m157 -156 c34 -26 59
-62 67 -96 l6 -28 -170 0 c-159 0 -170 1 -170 19 0 29 43 84 85 109 50 29 140
27 182 -4z"/>
<path d="M7805 2426 c-66 -16 -86 -28 -125 -73 -19 -21 -35 -32 -37 -26 -10
28 -46 63 -86 82 -88 43 -236 19 -286 -45 -25 -32 -29 -30 -33 14 l-3 37 -75
0 -75 0 -3 -332 -2 -333 79 0 80 0 3 218 c3 241 9 265 71 302 40 25 109 26
148 3 51 -31 59 -70 59 -308 l0 -215 80 0 80 0 0 216 c0 241 6 267 65 304 39
24 104 26 146 4 53 -27 59 -59 59 -304 l0 -220 80 0 80 0 0 253 c0 244 -1 254
-24 302 -13 28 -34 60 -47 72 -53 49 -152 69 -234 49z"/>
<path d="M8599 2430 c-57 -10 -98 -30 -137 -70 l-31 -30 -3 42 -3 43 -75 0
-75 0 0 -460 0 -460 75 0 75 0 3 168 2 169 37 -32 c55 -49 98 -64 183 -63 90
0 132 16 195 74 110 101 142 268 84 425 -51 137 -188 217 -330 194z m115 -173
c20 -16 43 -42 52 -59 22 -43 29 -138 14 -192 -23 -82 -115 -144 -196 -131
-98 14 -154 90 -154 209 0 90 26 146 83 181 58 36 148 32 201 -8z"/>
<path d="M6479 2406 c-72 -29 -121 -64 -112 -79 3 -7 20 -30 37 -52 16 -22 31
-42 33 -44 1 -2 20 8 42 22 79 52 190 59 245 16 22 -17 46 -72 46 -105 0 -7
-38 -11 -117 -10 -130 0 -177 -10 -240 -50 -64 -42 -86 -90 -81 -178 3 -60 8
-79 30 -108 76 -100 275 -115 368 -28 18 16 34 30 36 30 2 0 4 -16 4 -35 l0
-36 78 3 77 3 0 240 c0 267 -5 292 -62 356 -50 56 -121 79 -236 79 -73 0 -104
-5 -148 -24z m284 -410 c-3 -85 -63 -138 -159 -140 -74 -1 -108 25 -112 85 -5
78 53 109 198 106 l75 -2 -2 -49z"/>
<path d="M9944 2414 c-82 -30 -134 -104 -134 -190 0 -104 52 -151 218 -196 59
-16 117 -35 128 -43 27 -18 35 -47 20 -76 -33 -68 -169 -65 -273 5 -42 29 -46
27 -89 -35 l-28 -41 31 -28 c73 -65 229 -95 343 -66 115 29 175 102 174 207
-1 108 -58 156 -239 203 -132 35 -163 69 -110 121 20 21 33 25 87 25 51 0 73
-6 116 -29 l52 -29 36 46 c19 25 33 52 32 60 -2 8 -30 29 -63 46 -53 27 -71
31 -160 33 -70 2 -112 -2 -141 -13z"/>
<path d="M9057 2413 c-11 -10 -8 -425 3 -484 25 -129 105 -194 239 -193 84 0
135 20 181 69 l25 27 5 -39 5 -38 78 -3 77 -3 -2 333 -3 333 -75 0 -75 0 -5
-222 c-5 -204 -7 -224 -26 -249 -50 -68 -129 -91 -198 -59 -66 31 -71 51 -74
308 l-3 227 -73 0 c-40 0 -76 -3 -79 -7z"/>
</g>
</svg>
